<svg width="14" height="15" viewBox="0 0 14 15" fill="none" xmlns="http://www.w3.org/2000/svg">
<path d="M6.83432 5.89254L6.7365 6.38288L6.83432 5.89254ZM7.63487 6.36995C7.4968 6.6091 7.57873 6.9149 7.81788 7.05297C8.05703 7.19104 8.36282 7.1091 8.50089 6.86995L7.63487 6.36995ZM0.869181 9.6188L0.56168 9.22454C0.430554 9.32681 0.358854 9.48758 0.370385 9.65347C0.381915 9.81936 0.475167 9.96866 0.619181 10.0518L0.869181 9.6188ZM7.79738 13.6188L7.54738 14.0518C7.6914 14.135 7.86733 14.1411 8.01676 14.0681C8.16619 13.9951 8.26957 13.8527 8.29258 13.688L7.79738 13.6188ZM3.98013 7.43048L8.13705 9.83048L8.63705 8.96445L4.48013 6.56445L3.98013 7.43048ZM8.85563 9.57193C9.01802 9.13576 9.15872 8.43855 9.06023 7.72143C8.95953 6.98829 8.60127 6.20673 7.74378 5.71165L7.24378 6.57768C7.77192 6.8826 8.0001 7.35197 8.06953 7.8575C8.14116 8.37904 8.03567 8.90823 7.91848 9.223L8.85563 9.57193ZM7.74378 5.71165C7.47594 5.55701 7.20368 5.45637 6.93214 5.4022L6.7365 6.38288C6.89911 6.41532 7.06876 6.47663 7.24378 6.57768L7.74378 5.71165ZM6.93214 5.4022C6.21572 5.25928 5.55357 5.44761 5.03184 5.72276C4.51204 5.99689 4.09621 6.37471 3.84475 6.6789L4.61551 7.31603C4.793 7.10131 5.10859 6.81283 5.49832 6.60729C5.8861 6.40279 6.31158 6.29811 6.7365 6.38288L6.93214 5.4022ZM7.26733 6.14254L9.1008 2.96688L8.23477 2.46688L6.4013 5.64254L7.26733 6.14254ZM9.1008 2.96688C9.12294 2.92853 9.14695 2.8827 9.16185 2.85493C9.17964 2.8218 9.19404 2.79593 9.20826 2.77307C9.23848 2.72449 9.25276 2.71496 9.2492 2.71751C9.24537 2.72025 9.23728 2.725 9.22627 2.72832C9.21508 2.73169 9.20929 2.73104 9.21291 2.73122C9.22362 2.73174 9.2862 2.73891 9.41662 2.81421L9.91662 1.94818C9.70063 1.82348 9.48212 1.7432 9.26182 1.73242C9.02895 1.72101 8.82817 1.78918 8.66744 1.90415C8.51775 2.01121 8.42071 2.1459 8.35917 2.24482C8.32752 2.2957 8.30093 2.3444 8.28071 2.38209C8.2576 2.42515 8.24659 2.44642 8.23477 2.46688L9.1008 2.96688ZM9.41662 2.81421C9.55943 2.89666 9.61366 2.95251 9.62982 2.97327C9.63743 2.98304 9.62083 2.96182 9.62118 2.92409C9.62139 2.90175 9.62823 2.90679 9.6018 2.96087C9.58943 2.98617 9.57319 3.01558 9.55082 3.05391C9.53535 3.08043 9.4968 3.14499 9.47493 3.18288L10.341 3.68288C10.3757 3.62263 10.4494 3.50391 10.5002 3.40006C10.5553 3.28738 10.6194 3.12588 10.6211 2.93338C10.6253 2.48676 10.3127 2.17684 9.91662 1.94818L9.41662 2.81421ZM9.47493 3.18288L7.63487 6.36995L8.50089 6.86995L10.341 3.68288L9.47493 3.18288ZM3.92263 6.6032L0.56168 9.22454L1.17668 10.0131L4.53763 7.39173L3.92263 6.6032ZM8.29258 13.688L8.88224 9.46664L7.89186 9.32829L7.30219 13.5496L8.29258 13.688ZM0.619181 10.0518L2.35123 11.0518L2.85123 10.1858L1.11918 9.18579L0.619181 10.0518ZM2.35123 11.0518L4.08328 12.0518L4.58328 11.1858L2.85123 10.1858L2.35123 11.0518ZM4.08328 12.0518L5.81533 13.0518L6.31533 12.1858L4.58328 11.1858L4.08328 12.0518ZM5.81533 13.0518L7.54738 14.0518L8.04738 13.1858L6.31533 12.1858L5.81533 13.0518Z" fill="#4F4F4F"/>
<path d="M2.76786 10.3301L4.17855 9.22008" stroke="#4F4F4F" stroke-linecap="round"/>
<path d="M6.23205 12.3301L6.48804 10.5534" stroke="#4F4F4F" stroke-linecap="round"/>
<path d="M4.5 11.3301L5 10.4641" stroke="#4F4F4F" stroke-linecap="round"/>
</svg>
